<svg width="101" height="106" viewBox="0 0 101 106" fill="none" xmlns="http://www.w3.org/2000/svg">
<path d="M48.4604 100.052C22.2487 100.052 1 78.8029 1 52.5913C1 26.3796 22.2487 5.13086 48.4604 5.13086" stroke="white" stroke-width="0.6"/>
<path d="M29.8518 75.4295C28.9158 73.0852 27.5094 69.3077 27.5094 66.5448C27.5094 62.2229 28.7898 58.2536 30.9275 55.136M55.9522 75.4295C57.2041 72.8031 58.2945 69.7723 58.2945 66.5448C58.2945 62.4922 57.1688 58.7498 55.2661 55.7288" stroke="white" stroke-width="0.6"/>
<path d="M55.9522 75.4295L51.9367 85.0867H33.5326L29.8517 75.4295" stroke="white" stroke-width="0.6"/>
<path d="M30.521 55.7288C37.845 45.1295 37.5841 40.1013 38.5519 29.0748H47.2521C47.4087 39.9051 49.0053 45.1295 55.283 55.7288" stroke="white" stroke-width="0.6"/>
<path d="M39.3234 73.3653C38.3615 70.52 36.916 65.9351 36.916 62.5817C36.916 57.336 38.2319 52.5183 40.429 48.7344M66.1488 73.3653C67.4355 70.1776 68.5563 66.499 68.5563 62.5817C68.5563 57.6629 67.3993 53.1205 65.4437 49.4538" stroke="white" stroke-width="0.6"/>
<path d="M66.1489 73.3653L62.0219 85.0867H43.1065L39.3234 73.3653" stroke="white" stroke-width="0.6"/>
<path d="M40.0112 49.4538C47.5386 36.5891 47.2705 30.4861 48.2652 17.1028H57.207C57.368 30.2479 59.009 36.5891 65.461 49.4538" stroke="white" stroke-width="0.6"/>
<path d="M27.937 68.4114C51.881 65.846 51.0258 44.895 65.5633 49.5983" stroke="white" stroke-width="0.6"/>
<path d="M54.1305 2.2504L54.8826 2.40779C55.4393 2.50624 55.8631 2.55954 56.1542 2.56768C56.1783 2.61527 56.1861 2.6627 56.1778 2.70996L56.1509 2.7702C55.8614 2.78399 55.671 2.83428 55.5799 2.92106C55.5091 2.98437 55.4493 3.09295 55.4004 3.24679C55.2287 3.8501 55.043 4.71633 54.8433 5.84548C54.7235 6.52297 54.7667 7.07492 54.9729 7.50135C55.1791 7.92778 55.5711 8.19209 56.1488 8.29426C56.8368 8.41593 57.3446 8.31618 57.6722 7.99499C58.006 7.66948 58.2402 7.12596 58.3749 6.36445L58.5476 5.38761C58.7167 4.43177 58.8093 3.7549 58.8255 3.35697C58.7075 3.31985 58.4831 3.27204 58.1522 3.21352C58.1492 3.16965 58.1518 3.12408 58.1602 3.07681C58.1694 3.02429 58.1812 2.98846 58.1954 2.96931L59.1208 3.15735C59.52 3.22794 59.8309 3.26126 60.0537 3.25733C60.0743 3.29349 60.0796 3.34045 60.0694 3.39822L60.0503 3.45985C59.6302 3.47761 59.3613 3.71169 59.2437 4.1621C59.0661 4.82937 58.8909 5.65143 58.7182 6.62827C58.5817 7.40029 58.285 7.95984 57.8282 8.30693C57.3777 8.6497 56.7769 8.75467 56.0259 8.62185C55.6267 8.55126 55.2863 8.4396 55.0046 8.28688C54.7281 8.13508 54.5193 7.96817 54.3782 7.78614C54.2423 7.60504 54.144 7.39538 54.0833 7.15716C54.0225 6.91893 53.9935 6.69988 53.9964 6.49999C54.0054 6.29577 54.0304 6.07812 54.0712 5.84704L54.2844 4.64175C54.3596 4.21635 54.4553 3.53731 54.5716 2.60463C54.4746 2.57122 54.3131 2.53455 54.0873 2.49461C54.0833 2.45599 54.0855 2.41305 54.0938 2.36578C54.1022 2.31852 54.1144 2.28006 54.1305 2.2504Z" fill="white"/>
<path d="M63.5936 10.5471L62.7644 10.1862C62.4232 10.0483 62.1284 9.95214 61.88 9.89778C61.8663 9.84623 61.8685 9.7982 61.8865 9.7537L61.9253 9.70036C62.2064 9.74493 62.414 9.7224 62.548 9.63275C62.6522 9.55984 62.7442 9.4532 62.824 9.31285C63.1728 8.706 63.7782 7.37164 64.6402 5.30977C64.5706 5.1263 64.4968 4.9958 64.4188 4.91828C64.3408 4.84075 64.201 4.7526 63.9993 4.65383C63.9965 4.61817 64.0041 4.57809 64.022 4.53358C64.042 4.48414 64.0644 4.45005 64.0893 4.43132L65.3177 4.89325C65.466 4.95321 65.7596 5.66436 66.1984 7.02671C66.4512 7.79614 66.7911 8.9977 67.218 10.6314C67.3591 10.2397 67.6196 9.54536 67.9995 8.54841C68.3863 7.54851 68.6104 6.90854 68.6718 6.62848C68.569 6.56968 68.3718 6.48133 68.08 6.36342C68.0762 6.31587 68.0823 6.27231 68.0983 6.23276C68.1163 6.18825 68.1387 6.15416 68.1655 6.13049L68.9947 6.49147C69.3359 6.62936 69.6307 6.72549 69.8791 6.77985C69.8918 6.81951 69.8872 6.86654 69.8652 6.92093L69.8338 6.97727C69.5695 6.93374 69.3778 6.94544 69.2588 7.01236C69.1397 7.07928 69.0367 7.19875 68.95 7.37077C68.47 8.3733 67.8074 9.92039 66.9621 12.012L66.7541 12.0143L66.6748 11.7406C66.234 10.1129 65.7869 8.55736 65.3337 7.07413C65.1535 6.49511 64.9715 6.01313 64.7877 5.62821C64.5179 6.29575 64.1971 7.08939 63.8254 8.00912C63.4587 8.93085 63.22 9.61386 63.1095 10.0581C63.2172 10.1189 63.4096 10.2053 63.6865 10.3172C63.6853 10.3628 63.6768 10.4053 63.6608 10.4449C63.6448 10.4844 63.6224 10.5185 63.5936 10.5471Z" fill="white"/>
<path d="M73.3093 15.7622C72.5486 15.2495 72.1067 14.6075 71.9834 13.8362C71.8675 13.0634 72.0525 12.3166 72.5384 11.5958C73.0273 10.8705 73.67 10.4322 74.4666 10.281C75.2632 10.1297 76.033 10.3045 76.776 10.8053C77.3641 11.2017 77.8368 11.6265 78.1939 12.0794C78.2071 12.1076 78.2062 12.1328 78.1913 12.1549C78.1794 12.1726 78.1266 12.2366 78.0328 12.3471C77.6981 12.7196 77.4644 12.9995 77.3318 13.1867C77.2566 13.1552 77.2057 13.1306 77.1791 13.1127C77.1526 13.0948 77.1187 13.0591 77.0776 13.0057C77.2435 12.6737 77.3572 12.4191 77.4187 12.2419C77.3872 12.0406 77.2974 11.8256 77.1491 11.5971C77.0009 11.3685 76.7941 11.1648 76.5287 10.986C76.0246 10.6461 75.4874 10.5413 74.9173 10.6715C74.3515 10.8047 73.8615 11.1787 73.4471 11.7934C73.155 12.2268 72.9515 12.6814 72.8366 13.1571C72.7262 13.6358 72.7291 14.0944 72.8452 14.5328C72.9687 14.9698 73.2272 15.321 73.6208 15.5863C74.0144 15.8516 74.4353 15.981 74.8836 15.9744C75.063 15.8895 75.3264 15.7229 75.6738 15.4747C75.7799 15.5463 75.8469 15.6235 75.8745 15.7065C75.598 15.9832 75.3354 16.2725 75.0869 16.5745C75.0497 16.6202 75.0015 16.6295 74.9425 16.6026C74.4375 16.4358 73.8931 16.1557 73.3093 15.7622Z" fill="white"/>
<path d="M84.2852 21.4909C84.0168 21.7504 83.7325 21.9512 83.4321 22.0933C83.1393 22.2355 82.8645 22.3196 82.6075 22.3454C82.3582 22.3714 82.1037 22.3653 81.8441 22.327C81.5883 22.285 81.363 22.2247 81.1682 22.146C80.9809 22.0674 80.8014 21.9776 80.6295 21.8767C80.3755 21.7291 80.1985 21.6036 80.0984 21.5001C79.5571 20.9403 79.3025 20.2628 79.3346 19.4675C79.3706 18.6685 79.6953 17.9724 80.3087 17.3792C80.5771 17.1196 80.8577 16.9188 81.1505 16.7766C81.4508 16.6345 81.7276 16.5486 81.9808 16.5189C82.2377 16.493 82.4941 16.5011 82.7499 16.5431C83.0095 16.5814 83.2367 16.6398 83.4315 16.7185C83.6263 16.7972 83.8078 16.8851 83.9759 16.9822C84.2262 17.126 84.4051 17.2534 84.5126 17.3646C85.0502 17.9205 85.2972 18.6017 85.2535 19.4081C85.2137 20.2108 84.8909 20.9051 84.2852 21.4909ZM80.5698 21.3892C80.9888 21.8224 81.4515 22.0093 81.9579 21.9498C82.4718 21.8905 82.9588 21.6384 83.4189 21.1935C83.7754 20.8487 84.0555 20.4517 84.2592 20.0025C84.4665 19.5571 84.559 19.1042 84.5365 18.6436C84.5178 18.1794 84.3584 17.792 84.058 17.4815C83.6391 17.0483 83.1651 16.8612 82.636 16.9202C82.1146 16.9794 81.6315 17.224 81.1867 17.6541C80.8302 17.9989 80.5482 18.3978 80.3407 18.8507C80.1408 19.3037 80.0539 19.7624 80.0801 20.2268C80.1062 20.6912 80.2695 21.0786 80.5698 21.3892Z" fill="white"/>
<path d="M88.4445 32.8704L88.0378 32.1442C87.7419 31.65 87.4839 31.2605 87.2638 30.9758C87.2775 30.9365 87.3096 30.9018 87.3599 30.8717L87.4189 30.8457C87.6474 31.0819 87.8201 31.2147 87.9371 31.2441C88.0542 31.2734 88.2358 31.2238 88.482 31.0951C88.7281 30.9663 88.9794 30.8253 89.2356 30.6719C89.4964 30.5157 89.8841 30.265 90.3984 29.9198L91.4913 29.191C90.9763 29.2133 90.1178 29.2797 88.9158 29.3901C87.7166 29.5051 86.8782 29.6154 86.4007 29.721L86.2856 29.5288C87.7694 27.4284 88.6557 26.1209 88.9443 25.6062L89.266 25.022C88.6876 25.3434 87.9888 25.7493 87.1697 26.2396C86.3552 26.7273 85.7882 27.104 85.4687 27.3698C85.5152 27.4787 85.6152 27.6613 85.7686 27.9176C85.7402 27.9532 85.7031 27.9847 85.6574 28.0121C85.6162 28.0368 85.5823 28.0477 85.5558 28.0449L85.1121 27.257C84.9231 26.9412 84.7459 26.6868 84.5805 26.4936C84.5943 26.4543 84.6263 26.4196 84.6767 26.3894L84.7357 26.3634C84.9202 26.5575 85.0825 26.6624 85.2224 26.6781C85.3651 26.6984 85.5211 26.6734 85.6903 26.6031C86.5386 26.2445 87.8102 25.5703 89.5051 24.5805C89.5867 24.3638 89.6158 24.1631 89.5922 23.9783C89.5858 23.9572 89.5274 23.8182 89.417 23.561L89.5007 23.4829C89.5465 23.4555 89.5872 23.4405 89.6229 23.4377L90.3078 24.5196C90.3489 24.5882 90.2975 24.7775 90.1536 25.0874C90.0124 25.4019 89.8424 25.7306 89.6436 26.0734C89.4493 26.4134 89.1809 26.8321 88.8383 27.3293C88.4985 27.8311 88.2008 28.258 87.9453 28.6098C87.6897 28.9617 87.5514 29.1564 87.5303 29.1939C87.6986 29.1739 88.4643 29.0979 89.8273 28.9657C91.1948 28.8308 92.1347 28.7188 92.647 28.6296C92.9237 29.0918 93.1648 29.4479 93.3704 29.6978C93.3429 29.7453 93.2925 29.791 93.2193 29.8348C93.032 29.6361 92.8647 29.528 92.7175 29.5105C92.5703 29.493 92.4367 29.5139 92.3168 29.5732C92.1969 29.6326 91.9791 29.7567 91.6634 29.9458C91.3476 30.1348 90.8205 30.469 90.0819 30.9485C89.346 31.4325 88.7684 31.8435 88.3492 32.1815C88.3875 32.2767 88.4902 32.4638 88.6573 32.743C88.6335 32.7759 88.601 32.8047 88.5598 32.8293C88.5186 32.854 88.4802 32.8677 88.4445 32.8704Z" fill="white"/>
<path d="M92.0187 43.1874L91.7984 42.3847C91.63 41.8339 91.4732 41.3938 91.3279 41.0646C91.3507 41.0297 91.3902 41.0037 91.4463 40.9866L91.5098 40.9755C91.6748 41.2597 91.8105 41.4301 91.9171 41.4868C92.0236 41.5434 92.2119 41.5389 92.4818 41.4731C92.7517 41.4073 93.0294 41.3308 93.315 41.2435C93.6058 41.1546 94.0423 41.0044 94.6245 40.793L95.8605 40.3482C95.3553 40.2461 94.506 40.1042 93.3127 39.9224C92.121 39.7458 91.2807 39.6513 90.7917 39.6391L90.7263 39.4248C92.6715 37.7427 93.846 36.6865 94.2499 36.2563L94.7025 35.7666C94.0638 35.9395 93.288 36.1655 92.375 36.4446C91.4672 36.7222 90.8262 36.9516 90.4522 37.1328C90.4712 37.2497 90.5244 37.451 90.6117 37.7366C90.5756 37.7644 90.532 37.786 90.481 37.8016C90.4351 37.8157 90.3996 37.8181 90.3745 37.8091L90.1332 36.9376C90.0256 36.5856 89.9148 36.2961 89.8007 36.0688C89.8235 36.034 89.863 36.008 89.9191 35.9908L89.9826 35.9797C90.1151 36.2125 90.2474 36.3533 90.3794 36.4022C90.5131 36.4561 90.6705 36.4694 90.8517 36.4419C91.7613 36.2976 93.1576 35.9489 95.0408 35.3955C95.1721 35.2047 95.2485 35.0169 95.27 34.8318C95.2689 34.8099 95.2456 34.6608 95.2002 34.3847L95.3003 34.329C95.3513 34.3134 95.3945 34.3086 95.4298 34.3145L95.8346 35.5293C95.858 35.6058 95.7626 35.7771 95.5484 36.0434C95.3357 36.3147 95.0917 36.5929 94.8163 36.8778C94.5461 37.1612 94.1849 37.5031 93.7328 37.9034C93.2823 38.3088 92.8908 38.6516 92.5581 38.9318C92.2255 39.2119 92.0445 39.3676 92.015 39.399C92.1832 39.42 92.9447 39.5302 94.2994 39.7295C95.6593 39.9273 96.5986 40.0445 97.1173 40.0811C97.2748 40.5962 97.4233 40.9998 97.5627 41.2918C97.5246 41.3313 97.4648 41.3636 97.3832 41.3885C97.2491 41.1506 97.1127 41.0055 96.974 40.9531C96.8353 40.9007 96.7006 40.8889 96.57 40.9177C96.4394 40.9464 96.1981 41.0146 95.8462 41.1222C95.4942 41.2298 94.9022 41.4275 94.07 41.7154C93.2393 42.0084 92.5799 42.2685 92.0917 42.4958C92.106 42.5974 92.1608 42.8038 92.2559 43.1149C92.2248 43.1411 92.1864 43.1612 92.1405 43.1753C92.0946 43.1893 92.054 43.1933 92.0187 43.1874Z" fill="white"/>
<path d="M95.8315 52.3006C95.459 52.3258 95.1122 52.2957 94.7911 52.2105C94.4756 52.1303 94.2114 52.0171 93.9984 51.8712C93.7911 51.7301 93.6006 51.5613 93.427 51.3645C93.2586 51.1674 93.1254 50.9759 93.0274 50.7901C92.935 50.6093 92.8557 50.4249 92.7895 50.2369C92.6907 49.9603 92.6364 49.7501 92.6267 49.6064C92.5742 48.8295 92.8168 48.1476 93.3545 47.5607C93.8975 46.9735 94.5947 46.6511 95.4461 46.5936C95.8186 46.5685 96.1626 46.596 96.478 46.6763C96.7992 46.7615 97.0661 46.8745 97.2787 47.0151C97.4917 47.1611 97.6823 47.3326 97.8507 47.5297C98.0243 47.7265 98.1602 47.9178 98.2582 48.1036C98.3563 48.2894 98.4383 48.4736 98.504 48.6563C98.6025 48.9276 98.657 49.1404 98.6674 49.2947C98.7195 50.0663 98.4688 50.7461 97.9151 51.334C97.3668 51.9217 96.6723 52.2439 95.8315 52.3006ZM93.0585 49.8258C93.0991 50.4271 93.332 50.8684 93.7573 51.1498C94.1882 51.4361 94.7229 51.5576 95.3615 51.5145C95.8563 51.4811 96.3265 51.3585 96.7719 51.1466C97.2177 50.9401 97.5805 50.6537 97.8605 50.2873C98.1457 49.9206 98.2738 49.5218 98.2447 49.0907C98.2041 48.4894 97.9627 48.0407 97.5204 47.7445C97.0838 47.4532 96.5568 47.3285 95.9396 47.3701C95.4447 47.4036 94.9719 47.5264 94.5212 47.7385C94.0761 47.9557 93.7138 48.2501 93.4342 48.6218C93.1546 48.9935 93.0294 49.3948 93.0585 49.8258Z" fill="white"/>
<path d="M92.5629 58.0629L92.7203 57.1724C92.7747 56.8084 92.7993 56.4994 92.7941 56.2451C92.841 56.2198 92.8882 56.2107 92.9357 56.2178L92.9967 56.243C93.019 56.5268 93.0894 56.7234 93.2078 56.8327C93.3031 56.9171 93.4282 56.9816 93.5833 57.0264C94.2549 57.2238 95.6937 57.5008 97.8999 57.8575C98.062 57.7469 98.1717 57.6446 98.2288 57.5507C98.286 57.4568 98.3391 57.3003 98.388 57.0811C98.422 57.07 98.4628 57.068 98.5102 57.0751C98.563 57.083 98.6014 57.0968 98.6254 57.1166L98.4631 58.4189C98.4395 58.5771 97.8165 59.0287 96.5944 59.7736C95.9052 60.199 94.8163 60.8101 93.3275 61.6069C93.7413 61.6525 94.4773 61.7436 95.5354 61.8802C96.598 62.0228 97.2726 62.0912 97.5593 62.0856C97.5924 61.9719 97.6323 61.7594 97.6788 61.4482C97.7241 61.4334 97.7679 61.4292 97.8101 61.4355C97.8576 61.4426 97.8959 61.4564 97.9252 61.477L97.7679 62.3675C97.7135 62.7314 97.6889 63.0405 97.694 63.2948C97.6584 63.3164 97.6116 63.3229 97.5536 63.3142L97.4915 63.2968C97.4721 63.0297 97.4159 62.8461 97.3231 62.7459C97.2302 62.6457 97.09 62.5736 96.9025 62.5294C95.8155 62.2968 94.1565 62.0138 91.9253 61.6804L91.8745 61.4787L92.1221 61.3377C93.6019 60.5289 95.0099 59.7309 96.3463 58.9438C96.8672 58.6334 97.2934 58.3438 97.6247 58.0752C96.9126 57.9688 96.066 57.8423 95.0849 57.6956C94.103 57.5543 93.3832 57.4818 92.9253 57.4781C92.8914 57.597 92.8523 57.8042 92.8082 58.0996C92.7636 58.1091 92.7203 58.1107 92.6781 58.1044C92.6359 58.0981 92.5975 58.0843 92.5629 58.0629Z" fill="white"/>
<path d="M87.5107 73.6735C87.9333 72.8593 88.5207 72.347 89.2729 72.1365C90.0274 71.9332 90.7904 72.0318 91.562 72.4322C92.3383 72.8352 92.8471 73.4237 93.0883 74.1978C93.3294 74.9719 93.2436 75.7566 92.8309 76.5519C92.5041 77.1815 92.1361 77.6995 91.7269 78.106C91.7004 78.1223 91.6753 78.1243 91.6516 78.1121C91.6327 78.1022 91.563 78.0571 91.4426 77.9765C91.0343 77.6865 90.7296 77.4863 90.5285 77.3759C90.5511 77.2975 90.5698 77.2441 90.5846 77.2157C90.5993 77.1873 90.6309 77.1497 90.6793 77.1027C91.028 77.2296 91.2939 77.3135 91.477 77.3544C91.6734 77.3002 91.8767 77.1863 92.0868 77.013C92.297 76.8396 92.4758 76.611 92.6232 76.3269C92.9033 75.7873 92.9461 75.2417 92.7516 74.6901C92.5547 74.1432 92.1273 73.6991 91.4693 73.3576C91.0054 73.1168 90.5306 72.9665 90.0449 72.9067C89.5567 72.8516 89.1014 72.9068 88.6791 73.0722C88.2591 73.2447 87.9397 73.5417 87.721 73.963C87.5024 74.3843 87.4219 74.8172 87.4796 75.2618C87.5844 75.4303 87.7799 75.673 88.0662 75.9898C88.0072 76.1034 87.9381 76.1787 87.8588 76.2157C87.5524 75.9725 87.235 75.7447 86.9066 75.5322C86.857 75.5004 86.8422 75.4537 86.8622 75.392C86.9703 74.8712 87.1864 74.2984 87.5107 73.6735Z" fill="white"/>
<path d="M89.0568 82.5015L88.2789 83.4364L87.6845 84.18C87.3083 84.6508 86.9099 84.94 86.4893 85.0477C86.0729 85.1586 85.6522 85.0443 85.2272 84.7047C84.9064 84.4483 84.7101 84.1514 84.6384 83.8141C84.5674 83.4843 84.6068 83.1403 84.7566 82.7821C84.3859 82.7248 83.9515 82.6746 83.4534 82.6315C82.9519 82.5926 82.5709 82.5782 82.3102 82.5883C82.0503 82.6059 81.8754 82.6539 81.7855 82.7322C81.6997 82.8139 81.5803 82.9506 81.4271 83.1422C81.3871 83.1239 81.3505 83.1014 81.3171 83.0748C81.288 83.0515 81.2601 83.0223 81.2334 82.9874C81.4598 82.6699 81.6288 82.4158 81.7403 82.225C81.8443 82.035 81.9096 81.9234 81.9363 81.8901C81.9596 81.8609 82.0616 81.84 82.2423 81.8275C82.4239 81.8224 82.6584 81.8323 82.9458 81.8571C83.2373 81.8853 83.5059 81.9123 83.7517 81.938C83.9941 81.9678 84.271 82.0014 84.5826 82.0388C84.8949 82.0836 85.0857 82.1098 85.1548 82.1172C85.3679 81.8506 85.5411 81.651 85.6743 81.5185L84.7431 80.7743C84.4932 80.5745 84.2065 80.3693 83.8833 80.1588C83.7509 80.2646 83.5898 80.4363 83.4 80.6737C83.3567 80.6596 83.3142 80.6359 83.2725 80.6026C83.235 80.5726 83.2129 80.5447 83.2063 80.5189L83.8893 79.7027C84.1424 79.3861 84.3571 79.0832 84.5336 78.7941C84.5752 78.7933 84.6189 78.8112 84.6648 78.8478L84.7098 78.894C84.5866 79.1506 84.5505 79.3538 84.6014 79.5038C84.6414 79.6245 84.7173 79.7432 84.8289 79.8597C85.1681 80.2127 85.6605 80.6473 86.3063 81.1634C87.6853 82.2655 88.4173 82.7891 88.5022 82.7341C88.5863 82.6716 88.7066 82.5424 88.8631 82.3466C88.9056 82.3533 88.9393 82.3666 88.9643 82.3866C88.9893 82.4065 89.0202 82.4448 89.0568 82.5015ZM85.593 84.106C85.9013 84.3524 86.2337 84.4747 86.5902 84.4729C86.9434 84.4752 87.2348 84.3327 87.4646 84.0452C87.6943 83.7577 87.8458 83.5511 87.9191 83.4253C87.7724 83.233 87.0991 82.6573 85.8993 81.6983C85.7669 81.8383 85.5941 82.0416 85.381 82.3083C85.1679 82.5749 85.0748 82.8794 85.1016 83.2217C85.1251 83.5682 85.2889 83.863 85.593 84.106Z" fill="white"/>
<path d="M74.6986 88.9161L75.4254 88.3258C75.7334 88.0623 75.989 87.8155 76.1923 87.5855C76.2444 87.5971 76.286 87.6211 76.3172 87.6576L76.3466 87.7166C76.2198 87.8883 76.145 88.0225 76.1224 88.119C76.0992 88.2232 76.1118 88.3036 76.1604 88.3603C76.2089 88.417 76.3344 88.5062 76.5367 88.6279L77.6755 89.2329C77.9047 89.0578 78.1713 88.8402 78.4752 88.5802L79.3289 87.8182L79.148 87.2992C78.9207 86.6233 78.7169 86.18 78.5366 85.9693C78.4399 86.045 78.2964 86.1643 78.1059 86.3273C78.0735 86.3058 78.0417 86.2769 78.0105 86.2404C77.9793 86.2039 77.9574 86.1701 77.9447 86.1388L78.6046 85.6058C78.8599 85.3873 79.0689 85.1804 79.2317 84.985C79.2803 84.9926 79.3219 85.0166 79.3566 85.0572L79.386 85.1162C79.2279 85.3498 79.1542 85.5672 79.165 85.7685C79.1718 85.9733 79.2637 86.372 79.4407 86.9645L80.8518 91.6532L80.7545 91.7364L76.2983 89.3583C76.2081 89.3021 76.017 89.2059 75.725 89.0697C75.4324 88.941 75.2546 88.8686 75.1915 88.8523C75.0677 88.9372 74.9571 89.0213 74.8598 89.1045C74.8234 89.0865 74.7896 89.0593 74.7584 89.0228C74.7272 88.9864 74.7073 88.9508 74.6986 88.9161ZM79.4406 88.1333L78.6417 88.7747C78.362 89.014 78.1322 89.2211 77.9521 89.3962L80.2487 90.653L79.4406 88.1333Z" fill="white"/>
<path d="M70.6031 94.833L70.2401 94.239C70.2939 94.1831 70.3347 94.1471 70.3624 94.131L70.4535 94.0967L70.7905 94.5023C70.9807 94.4475 71.2811 94.301 71.6916 94.0628C72.0976 93.8273 72.3585 93.6606 72.4743 93.5626L72.0086 92.7598C71.733 92.2847 71.4643 91.864 71.2026 91.4979C70.9743 91.5934 70.6779 91.7468 70.3135 91.9582C70.2683 91.9228 70.2323 91.882 70.2055 91.8359C70.1814 91.7943 70.1719 91.7567 70.177 91.7229L71.3862 91.0492C71.7368 90.8458 72.0467 90.6414 72.3159 90.4359C72.3551 90.4502 72.3894 90.4827 72.4188 90.5334L72.444 90.5928C72.2362 90.7873 72.1289 90.9637 72.122 91.1218C72.1155 91.2489 72.1432 91.3869 72.205 91.536C72.3932 91.988 72.6706 92.5299 73.0373 93.162C73.9686 94.7674 74.4851 95.5621 74.5869 95.5463C74.688 95.5185 74.8469 95.4417 75.0637 95.3159C75.0917 95.3429 75.1177 95.3771 75.1418 95.4186C75.1659 95.4601 75.1813 95.4974 75.1882 95.5304L74.1243 96.1199L73.2385 96.6337C73.2385 96.6337 72.7035 96.9656 71.6335 97.6295C71.5505 97.6777 71.4943 97.6764 71.4648 97.6257C71.4621 97.621 71.437 97.5617 71.3892 97.4475C71.2473 97.0859 71.0959 96.7452 70.935 96.4255C70.9743 96.3657 71.0171 96.3224 71.0632 96.2956C71.1047 96.2715 71.147 96.2593 71.19 96.2591C71.4628 96.6125 71.6579 96.8478 71.7751 96.9647C72.2511 96.8181 72.6667 96.6417 73.0219 96.4357C73.3725 96.2323 73.6186 96.0772 73.7601 95.9704C73.6924 95.7261 73.324 95.0273 72.6549 93.8739C72.5335 93.9197 72.3321 94.0242 72.0507 94.1875C71.7693 94.3507 71.5463 94.4924 71.3817 94.6126C71.2171 94.7327 71.1139 94.8419 71.0722 94.9401C71.0286 95.0455 71.0438 95.194 71.1178 95.3853C71.0301 95.4362 70.9493 95.4615 70.8752 95.4613C70.7688 95.1716 70.6781 94.9622 70.6031 94.833Z" fill="white"/>
<path d="M61.8857 95.4101L63.1291 94.9907C63.6714 94.7967 64.1137 94.6158 64.4558 94.448C64.4917 94.4692 64.5195 94.5074 64.5393 94.5626L64.5533 94.6255C64.2266 94.8048 64.0233 94.9568 63.9433 95.0817C63.8652 95.2116 63.8445 95.3833 63.8812 95.5967C63.9439 95.9935 64.1315 96.6287 64.4442 97.5025C64.7568 98.3762 64.9851 98.9828 65.1292 99.3221C65.2733 99.6614 65.3756 99.8683 65.4363 99.9429C65.5708 99.9231 65.7285 99.8808 65.9093 99.8162C66.3311 99.6652 66.6402 99.4923 66.8367 99.2974L66.8717 98.3502C66.9872 98.3089 67.0797 98.2985 67.1493 98.3189L67.4466 99.5295C67.4663 99.5847 67.4335 99.6276 67.3482 99.6582L66.0036 100.08L64.1582 100.74L62.7308 101.31C62.6404 101.343 62.5854 101.331 62.5656 101.276C62.4878 100.805 62.3834 100.387 62.2522 100.02C62.2852 99.9857 62.3318 99.9577 62.3921 99.9361C62.4523 99.9145 62.5036 99.9075 62.546 99.915C62.8142 100.38 62.9615 100.633 62.9877 100.675C63.2783 100.695 63.642 100.627 64.0789 100.471C64.2747 100.401 64.4284 100.332 64.54 100.264C64.5389 100.213 64.4844 99.9975 64.3765 99.6169C64.2637 99.2381 64.103 98.7575 63.8946 98.175L63.4122 96.8267C63.2127 96.2693 62.9992 95.7991 62.7715 95.416C62.5279 95.4635 62.2605 95.5394 61.9692 95.6436C61.9398 95.6088 61.9161 95.5663 61.8981 95.5161C61.882 95.4709 61.8778 95.4356 61.8857 95.4101Z" fill="white"/>
<path d="M54.7923 102.461C55.1819 102.63 55.5398 102.688 55.8662 102.634C56.1925 102.581 56.4412 102.449 56.612 102.237C56.7829 102.026 56.846 101.783 56.8014 101.509C56.7576 101.241 56.6115 101.024 56.3631 100.859C56.1147 100.694 55.7321 100.535 55.2154 100.382C54.3859 100.133 53.8338 99.8125 53.559 99.4196C53.4317 99.235 53.3495 99.0296 53.3127 98.8032C53.2329 98.3137 53.3782 97.8955 53.7485 97.5488C54.1137 97.2029 54.5752 96.9844 55.1332 96.8935C55.4332 96.8446 55.7511 96.8225 56.0869 96.8272C56.4227 96.8319 56.6664 96.8517 56.818 96.8864C56.9375 97.2884 57.1034 97.7423 57.3155 98.2481C57.2285 98.3109 57.1613 98.3462 57.1139 98.3539C57.0612 98.3625 57.0213 98.3663 56.9942 98.3653C56.7867 98.0209 56.6044 97.7642 56.4472 97.5953C56.3178 97.4975 56.2049 97.4186 56.1087 97.3586C56.0133 97.3039 55.8649 97.2552 55.6634 97.2124C55.4566 97.1704 55.2163 97.1717 54.9426 97.2164C54.6689 97.261 54.4369 97.396 54.2467 97.6216C54.0565 97.8471 53.9855 98.1073 54.0335 98.402C54.0721 98.6389 54.1421 98.8031 54.2435 98.8947C54.3449 98.9862 54.4209 99.0549 54.4716 99.1007C54.517 99.1473 54.6006 99.1958 54.7223 99.2462C54.8448 99.3019 54.9293 99.3395 54.9757 99.3589C55.0221 99.3784 55.1224 99.4134 55.2765 99.4639C55.4254 99.5153 55.5598 99.5609 55.6798 99.6008C55.7954 99.6468 55.8934 99.6849 55.974 99.715C56.0545 99.7451 56.1784 99.7925 56.3457 99.8571C56.5138 99.9269 56.6337 99.983 56.7054 100.025C56.778 100.073 56.8721 100.136 56.9875 100.214C57.103 100.293 57.1882 100.368 57.2432 100.44C57.3853 100.649 57.4727 100.854 57.5053 101.054C57.5843 101.538 57.4429 101.948 57.0814 102.282C56.7207 102.622 56.2534 102.839 55.6797 102.932C55.4428 102.971 55.1745 102.982 54.8746 102.966C54.5748 102.95 54.3404 102.921 54.1713 102.878C54.1887 102.686 54.1708 102.295 54.1177 101.703C54.166 101.669 54.2192 101.646 54.2771 101.637C54.335 101.628 54.3867 101.63 54.4322 101.644C54.4478 101.706 54.5025 101.843 54.5965 102.055C54.6913 102.272 54.7565 102.407 54.7923 102.461Z" fill="white"/>
</svg>
